<svg xmlns="http://www.w3.org/2000/svg" viewBox="0 0 64 64">
  <rect width="64" height="64" rx="12" fill="#FFF3E0"/>
  <circle cx="32" cy="34" r="22" fill="#F57C00"/>
  <path d="M 10,34 Q 32,28 54,34" stroke="#E65100" stroke-width="0.8" fill="none"/>
  <path d="M 14,24 Q 32,18 50,24" stroke="#E65100" stroke-width="0.8" fill="none"/>
  <path d="M 14,44 Q 32,50 50,44" stroke="#E65100" stroke-width="0.8" fill="none"/>
  <path d="M 32,12 L 32,34 M 20,18 L 32,34 M 44,18 L 32,34 M 12,34 L 32,34 M 52,34 L 32,34 M 20,50 L 32,34 M 44,50 L 32,34" stroke="#E65100" stroke-width="0.6" fill="none"/>
  <path d="M 32,12 L 34,7" stroke="#4CAF50" stroke-width="2.5" stroke-linecap="round" fill="none"/>
  <path d="M 34,8 Q 40,6 42,11 Q 37,12 34,8 Z" fill="#4CAF50"/>
  <ellipse cx="22" cy="26" rx="5" ry="7" fill="#FFCC80" opacity="0.4" transform="rotate(-20,22,26)"/>
</svg>
