<svg xmlns="http://www.w3.org/2000/svg" viewBox="0 0 64 64">
  <rect width="64" height="64" rx="12" fill="#F3E5F5"/>
  <circle cx="32" cy="48" r="7" fill="#6A1B9A"/>
  <circle cx="23" cy="40" r="7" fill="#7B1FA2"/>
  <circle cx="41" cy="40" r="7" fill="#6A1B9A"/>
  <circle cx="17" cy="31" r="7" fill="#7B1FA2"/>
  <circle cx="32" cy="31" r="7" fill="#6A1B9A"/>
  <circle cx="47" cy="31" r="7" fill="#7B1FA2"/>
  <circle cx="24" cy="22" r="7" fill="#6A1B9A"/>
  <circle cx="40" cy="22" r="7" fill="#7B1FA2"/>
  <circle cx="30" cy="46" r="2" fill="#CE93D8" opacity="0.7"/>
  <circle cx="21" cy="38" r="2" fill="#CE93D8" opacity="0.7"/>
  <circle cx="39" cy="38" r="2" fill="#CE93D8" opacity="0.7"/>
  <circle cx="15" cy="29" r="2" fill="#CE93D8" opacity="0.7"/>
  <circle cx="30" cy="29" r="2" fill="#CE93D8" opacity="0.7"/>
  <circle cx="45" cy="29" r="2" fill="#CE93D8" opacity="0.7"/>
  <circle cx="22" cy="20" r="2" fill="#CE93D8" opacity="0.7"/>
  <circle cx="38" cy="20" r="2" fill="#CE93D8" opacity="0.7"/>
  <path d="M 32,15 L 32,10" stroke="#6D4C41" stroke-width="2.5" stroke-linecap="round" fill="none"/>
  <path d="M 32,12 Q 38,8 42,11" stroke="#4CAF50" stroke-width="2" fill="none" stroke-linecap="round"/>
  <path d="M 32,12 Q 26,8 22,11" stroke="#4CAF50" stroke-width="2" fill="none" stroke-linecap="round"/>
</svg>
